<?xml version="1.0" standalone="no"?>
<!DOCTYPE svg PUBLIC "-//W3C//DTD SVG 20010904//EN"
 "http://www.w3.org/TR/2001/REC-SVG-20010904/DTD/svg10.dtd">
<svg version="1.0" xmlns="http://www.w3.org/2000/svg"
 width="400.000000pt" height="150.000000pt" viewBox="0 0 400.000000 150.000000"
 preserveAspectRatio="xMidYMid meet">

<g transform="translate(0.000000,150.000000) scale(0.100000,-0.100000)"
fill="#000000" stroke="none">
<path d="M1105 1209 c-105 -8 -194 -33 -295 -84 -186 -94 -340 -256 -340 -359
0 -49 69 -146 154 -217 89 -74 226 -143 336 -170 108 -27 284 -22 400 11 142
41 347 169 306 192 -11 6 -30 -2 -68 -31 -54 -40 -195 -121 -213 -121 -5 0 16
26 47 57 31 32 67 81 82 109 83 168 44 369 -96 499 -44 41 -55 55 -37 50 51
-16 157 -77 206 -120 28 -25 56 -45 62 -45 25 0 19 22 -15 52 -117 103 -242
158 -414 181 -8 1 -60 -1 -115 -4z m110 -49 c4 -6 10 -8 15 -5 11 7 110 -36
110 -47 0 -4 6 -8 13 -8 23 0 116 -114 138 -170 32 -83 36 -174 10 -244 -37
-99 -69 -153 -113 -189 -54 -44 -87 -59 -167 -82 -73 -19 -169 -14 -208 11
-13 8 -23 12 -23 8 0 -13 -97 52 -133 90 -50 51 -96 146 -103 212 -9 70 12
178 44 238 35 65 121 139 196 170 46 19 80 25 138 26 42 0 80 -5 83 -10z
m-396 -92 c-102 -111 -135 -277 -85 -421 27 -77 59 -124 120 -180 l41 -38 -40
16 c-157 63 -355 246 -355 328 0 80 124 206 310 315 51 30 52 27 9 -20z"/>
<path d="M1050 968 c-35 -18 -79 -61 -96 -93 -22 -43 -18 -150 8 -196 12 -22
24 -39 27 -39 3 0 18 -11 33 -23 41 -35 146 -37 208 -4 64 34 104 110 97 186
-7 64 -40 119 -92 151 -43 27 -147 37 -185 18z m200 -63 l23 -24 -47 -21 c-48
-20 -66 -24 -66 -15 0 11 51 85 58 85 5 0 19 -11 32 -25z"/>
<path d="M1027 429 c7 -7 15 -10 18 -7 3 3 -2 9 -12 12 -14 6 -15 5 -6 -5z"/>
<path d="M2300 830 l0 -230 65 0 65 0 0 230 0 230 -65 0 -65 0 0 -230z m110 0
l0 -210 -45 0 -45 0 0 210 0 210 45 0 45 0 0 -210z"/>
<path d="M1717 976 c-51 -19 -76 -42 -99 -94 -24 -54 -25 -148 -2 -197 16 -34
59 -78 86 -88 14 -5 -49 -139 -129 -276 -24 -41 -42 -80 -39 -86 5 -15 60 -24
78 -14 8 4 25 31 38 58 15 33 35 58 57 71 l33 19 -6 -24 c-10 -38 12 -31 77
25 l58 51 -19 -43 c-34 -76 1 -79 94 -8 64 48 77 50 56 9 -6 -11 -21 -19 -35
-19 -25 0 -35 -23 -15 -35 14 -9 90 14 121 35 l25 19 -4 -30 c-3 -20 0 -29 10
-29 22 0 99 52 138 93 19 20 37 37 41 37 4 0 -6 -25 -23 -55 -42 -78 -19 -100
55 -49 l38 25 -7 -25 c-9 -39 32 -30 84 17 l22 21 -6 -32 c-5 -27 -3 -32 12
-32 11 0 34 9 52 20 40 25 41 25 35 0 -9 -35 19 -23 75 33 l54 52 -22 -44
c-33 -67 -12 -73 51 -15 48 46 51 47 35 17 -32 -63 -11 -81 50 -44 31 19 32
19 48 0 20 -24 42 -24 91 1 47 24 47 24 43 4 -6 -31 17 -24 69 21 28 25 54 45
57 45 4 0 0 -13 -9 -30 -33 -63 -7 -79 57 -35 45 30 51 31 43 5 -16 -49 53
-27 132 43 23 21 33 25 33 14 0 -30 -13 -47 -35 -47 -28 0 -37 -11 -25 -29 15
-25 140 30 140 61 0 5 -12 1 -27 -9 l-26 -17 6 34 c3 19 9 52 13 73 8 49 -16
51 -46 2 -22 -35 -97 -101 -106 -93 -2 3 9 35 25 72 l30 66 103 1 c119 2 141
4 157 13 31 19 1 26 -114 26 -104 0 -125 2 -125 15 0 19 -26 19 -34 0 -3 -9
-18 -15 -40 -15 -22 0 -36 -6 -40 -16 -9 -23 -8 -24 23 -24 29 0 30 -1 19 -30
-8 -26 -44 -60 -117 -114 -7 -6 -2 13 13 41 14 29 26 57 26 63 0 18 -32 11
-66 -15 -39 -30 -48 -31 -34 -6 14 26 13 31 -5 31 -9 0 -30 -17 -48 -37 -41
-47 -105 -93 -129 -93 -28 0 -21 18 11 25 69 15 97 97 35 103 -33 3 -88 -33
-98 -66 -6 -17 -44 -47 -52 -40 -2 2 5 21 16 41 39 72 16 89 -47 35 -37 -33
-37 -32 -16 20 10 24 -37 12 -73 -20 l-37 -33 17 33 c16 30 16 32 -2 32 -10 0
-42 -25 -70 -55 -29 -30 -57 -55 -62 -55 -6 0 1 22 15 50 29 57 29 60 12 60
-7 0 -33 -21 -57 -46 -25 -25 -53 -50 -63 -55 -15 -9 -14 -2 8 40 14 28 25 53
25 56 0 17 -31 0 -65 -36 -22 -22 -53 -50 -68 -61 l-29 -21 21 41 c28 55 27
68 -11 86 -42 21 -48 20 -48 -8 0 -16 -17 -39 -51 -70 -29 -26 -53 -45 -56
-43 -2 2 11 36 28 75 l32 72 127 0 c101 0 130 3 140 15 11 13 -3 15 -113 15
-120 0 -127 1 -138 22 l-12 22 -17 -21 c-9 -12 -30 -23 -45 -25 -37 -4 -46
-28 -11 -28 30 0 31 -2 12 -39 -15 -28 -95 -106 -102 -99 -2 3 1 32 7 67 6 34
9 64 6 67 -3 3 -39 -29 -81 -72 -42 -42 -79 -75 -82 -72 -3 3 7 26 21 51 14
25 25 51 25 56 0 21 -36 11 -79 -21 l-43 -31 16 31 c27 52 -5 41 -69 -25 -30
-31 -57 -54 -60 -51 -3 2 14 50 37 106 37 92 44 102 67 102 35 0 87 33 110 70
l18 31 13 -31 c27 -65 103 -90 170 -55 17 9 30 11 30 5 0 -6 27 -10 66 -10
l65 0 -3 188 -3 187 -67 3 -68 3 0 -115 c0 -131 -4 -146 -35 -146 -31 0 -35
15 -35 146 l0 114 -65 0 -65 0 0 -51 0 -52 -23 33 c-43 64 -128 92 -200 66z
m154 -46 c17 -13 28 -28 25 -36 -3 -8 -2 -14 3 -14 5 0 11 -9 14 -21 5 -18 2
-20 -41 -17 -26 2 -46 7 -44 11 9 25 -66 48 -94 29 -21 -13 -35 -87 -25 -133
13 -59 40 -84 77 -72 16 5 33 19 39 31 8 18 18 22 52 22 49 0 53 -9 23 -58
-24 -40 -69 -59 -130 -56 -25 2 -46 4 -47 5 -2 1 -6 2 -10 3 -5 1 -18 8 -29
16 -75 53 -85 216 -17 270 14 11 22 20 17 20 -5 1 2 7 16 15 36 22 131 13 171
-15z m179 -100 l0 -120 27 -11 c37 -14 69 -4 77 23 3 13 6 69 6 126 l0 102 45
0 45 0 0 -166 0 -165 -37 3 c-35 3 -38 6 -41 36 l-3 32 -41 -41 c-37 -37 -45
-41 -79 -36 -43 6 -69 27 -72 57 -1 11 -5 20 -9 20 -4 0 -8 59 -8 130 l0 130
45 0 45 0 0 -120z m-248 15 c10 -23 17 -25 75 -25 l64 0 -3 -32 c-2 -22 -9
-34 -21 -36 -32 -6 -64 7 -70 28 -10 38 -44 24 -63 -25 -9 -25 -20 -45 -25
-45 -14 0 -29 37 -29 74 0 75 47 115 72 61z m1137 -411 c-6 -8 -18 -14 -27
-14 -13 0 -12 3 3 20 20 22 43 17 24 -6z"/>
<path d="M3025 977 c-17 -5 -40 -19 -52 -30 l-23 -20 0 26 c0 26 -2 27 -60 27
l-60 0 0 -190 0 -190 64 0 64 0 3 85 c4 74 7 88 29 109 17 17 39 26 65 28 l40
3 3 76 c3 73 2 77 -20 81 -13 2 -37 0 -53 -5z m39 -33 c8 -22 7 -67 -2 -81 -5
-7 -20 -14 -35 -15 -15 -1 -27 -6 -27 -10 0 -3 -9 -9 -19 -13 -27 -8 -34 -29
-40 -120 l-6 -80 -40 0 -40 0 0 159 0 159 38 1 c35 1 37 0 37 -31 0 -43 13
-41 59 7 40 42 65 50 75 24z"/>
<path d="M2533 961 c-37 -23 -53 -49 -53 -85 0 -25 2 -26 60 -26 45 0 62 4 66
15 9 22 56 20 52 -2 -2 -11 -23 -22 -68 -33 -101 -25 -125 -44 -130 -100 -5
-59 1 -83 29 -111 25 -25 37 -29 83 -29 34 0 62 6 78 17 17 12 25 13 28 5 2
-8 28 -12 73 -12 54 0 68 3 62 13 -4 6 -10 78 -13 159 -5 145 -5 148 -33 175
-25 26 -35 28 -115 31 -73 2 -92 0 -119 -17z m192 -11 c42 -16 53 -59 51 -200
l-1 -125 -37 -3 c-29 -2 -38 1 -43 17 -3 11 -14 19 -25 18 -10 -1 -17 -5 -14
-9 9 -14 -42 -35 -81 -34 -76 4 -108 45 -78 102 7 15 11 29 8 32 -3 3 -5 0 -5
-6 0 -7 -4 -12 -10 -12 -6 0 -5 9 2 24 12 28 59 51 83 42 9 -3 13 -2 10 4 -3
6 5 10 19 10 61 0 103 42 76 75 -16 19 -74 19 -90 0 -14 -17 -76 -20 -85 -4
-8 12 31 57 60 69 28 12 129 12 160 0z"/>
<path d="M2620 761 c-27 -10 -46 -24 -48 -35 -5 -25 17 -64 39 -71 29 -10 70
35 76 83 6 48 3 49 -67 23z m41 -44 c-9 -23 -32 -33 -56 -23 -21 8 -7 33 23
44 35 12 43 7 33 -21z"/>
<path d="M3166 959 c-26 -20 -35 -61 -18 -85 9 -14 47 -34 64 -34 25 0 58 40
58 70 0 29 -38 70 -65 70 -7 0 -24 -9 -39 -21z m78 -15 c36 -36 8 -87 -44 -82
-27 2 -37 9 -44 30 -18 51 49 91 88 52z"/>
<path d="M3180 911 c0 -23 4 -41 10 -41 5 0 7 7 4 15 -4 9 0 15 10 15 9 0 16
-7 16 -15 0 -8 3 -15 8 -15 4 0 7 17 7 38 0 33 -3 37 -28 40 -25 3 -27 1 -27
-37z m35 19 c3 -5 -1 -10 -10 -10 -9 0 -13 5 -10 10 3 6 8 10 10 10 2 0 7 -4
10 -10z"/>
</g>
</svg>
